<svg width="96" height="101" viewBox="0 0 96 101" fill="none" xmlns="http://www.w3.org/2000/svg">
<path d="M91.5001 0H90V5.26043C90 7.10156 88.8751 8.41667 87.7498 8.41667H80.2502C78.9375 8.41667 78 7.10156 78 5.26043V0H18V5.26043C18 7.10156 16.875 8.41667 15.75 8.41667H8.24999C6.9375 8.41667 6 7.10156 6 5.26043V0H4.49998C1.875 0 0 2.89323 0 6.31247V94.6876C0 98.3699 1.875 101 4.49998 101H6V95.7398C6 94.1613 6.9375 92.5833 8.24999 92.5833H15.75C16.875 92.5833 18 94.1613 18 95.7398V101H78V95.7398C78 94.1613 78.9375 92.5833 80.2502 92.5833H87.7498C88.8751 92.5833 90 94.1613 90 95.7398V101H91.5001C93.9377 101 96 98.3699 96 94.6876V6.31247C96 2.89323 93.9377 0 91.5001 0ZM18 81.0102C18 82.8516 16.875 84.1667 15.75 84.1667H8.24999C6.9375 84.1667 6 82.8516 6 81.0102V70.4898C6 68.9113 6.9375 67.3333 8.24999 67.3333H15.75C16.875 67.3333 18 68.9113 18 70.4898V81.0102ZM18 55.7602C18 57.6016 16.875 58.9167 15.75 58.9167H8.24999C6.9375 58.9167 6 57.6016 6 55.7602V45.2396C6 43.6614 6.9375 42.0833 8.24999 42.0833H15.75C16.875 42.0833 18 43.6614 18 45.2396V55.7602ZM18 30.5104C18 32.3516 16.875 33.6667 15.75 33.6667H8.24999C6.9375 33.6667 6 32.3516 6 30.5104V19.9896C6 18.4115 6.9375 16.8333 8.24999 16.8333H15.75C16.875 16.8333 18 18.4115 18 19.9896V30.5104ZM68.9998 85.2188C68.9998 87.0597 67.8749 88.3753 66.7501 88.3753H29.25C27.9375 88.3753 27 87.0597 27 85.2188V59.9688C27 58.3909 27.9375 56.8124 29.25 56.8124H66.7501C67.8749 56.8124 68.9998 58.3909 68.9998 59.9688V85.2188ZM68.9998 41.0312C68.9998 42.8724 67.8749 44.1875 66.7501 44.1875H29.25C27.9375 44.1875 27 42.8724 27 41.0312V15.7812C27 14.2031 27.9375 12.625 29.25 12.625H66.7501C67.8749 12.625 68.9998 14.2031 68.9998 15.7812V41.0312ZM90 81.0102C90 82.8516 88.8751 84.1667 87.7498 84.1667H80.2502C78.9375 84.1667 78 82.8516 78 81.0102V70.4898C78 68.9113 78.9375 67.3333 80.2502 67.3333H87.7498C88.8751 67.3333 90 68.9113 90 70.4898V81.0102ZM90 55.7602C90 57.6016 88.8751 58.9167 87.7498 58.9167H80.2502C78.9375 58.9167 78 57.6016 78 55.7602V45.2396C78 43.6614 78.9375 42.0833 80.2502 42.0833H87.7498C88.8751 42.0833 90 43.6614 90 45.2396V55.7602ZM90 30.5104C90 32.3516 88.8751 33.6667 87.7498 33.6667H80.2502C78.9375 33.6667 78 32.3516 78 30.5104V19.9896C78 18.4115 78.9375 16.8333 80.2502 16.8333H87.7498C88.8751 16.8333 90 18.4115 90 19.9896V30.5104Z" fill="white"/>
</svg>
