<svg width="39" height="39" viewBox="0 0 39 39" fill="none" xmlns="http://www.w3.org/2000/svg">
<path d="M38.75 19.375C38.75 8.67188 30.0781 0 19.375 0C8.67188 0 0 8.67188 0 19.375C0 30.0781 8.67188 38.75 19.375 38.75C30.0781 38.75 38.75 30.0781 38.75 19.375ZM3.75 19.375C3.75 10.7812 10.7031 3.75 19.375 3.75C27.9688 3.75 35 10.7812 35 19.375C35 28.0469 27.9688 35 19.375 35C10.7031 35 3.75 28.0469 3.75 19.375ZM9.375 20.9375C9.375 21.4844 9.7656 21.875 10.3125 21.875H19.375V27.1094C19.375 27.9688 20.3125 28.4375 20.9375 27.8125L28.6719 20.0781C29.0625 19.6875 29.0625 19.1406 28.6719 18.75L20.9375 11.0156C20.3125 10.3906 19.375 10.8594 19.375 11.6406V16.875H10.3125C9.7656 16.875 9.375 17.3438 9.375 17.8125V20.9375Z" fill="#FFE4E4"/>
</svg>
